<?xml version="1.0" encoding="iso-8859-1"?>
<!-- Generator: Adobe Illustrator 19.0.0, SVG Export Plug-In . SVG Version: 6.00 Build 0)  -->
<svg version="1.1" id="Capa_1" xmlns="http://www.w3.org/2000/svg" xmlns:xlink="http://www.w3.org/1999/xlink" x="0px" y="0px"
	 viewBox="0 0 511.998 511.998" style="enable-background:new 0 0 511.998 511.998;" xml:space="preserve">
<g>
	<path style="fill:#E5E5E5;" d="M166.023,24.85c0.026,2.156-0.296,4.294-0.956,6.346l-26.774,85.711H94.22l30.599-98.229
		c3.495-11.109,15.334-17.281,26.444-13.787C159.99,7.638,165.953,15.696,166.023,24.85z"/>
	<path style="fill:#E5E5E5;" d="M283.811,24.936c-0.017,2.121-0.339,4.225-0.956,6.259l-26.774,85.711h-44.16l30.686-98.229
		c3.495-11.109,15.343-17.281,26.452-13.778C277.813,7.646,283.776,15.757,283.811,24.936z"/>
	<path style="fill:#E5E5E5;" d="M409.423,24.85c0.026,2.156-0.296,4.294-0.956,6.346l-26.774,85.711H337.62l30.599-98.229
		c3.495-11.109,15.334-17.281,26.444-13.787C403.39,7.638,409.353,15.696,409.423,24.85z"/>
</g>
<path style="fill:#F57B78;" d="M263.557,116.907h57.634l-66.066,184.115c-13.83,38.588-15.465,80.496-4.694,120.048l0.087,0.348
	c6.094,22.384,19.498,42.091,38.075,55.982l15.386,11.561c16.542,12.422,36.684,19.142,57.373,19.124H243.389
	c-20.689,0.017-40.83-6.702-57.373-19.124l-15.386-11.561c-18.577-13.891-31.981-33.598-38.075-55.982l-0.087-0.348
	c-10.77-39.552-9.136-81.461,4.694-120.048l66.066-184.115C203.228,116.907,263.557,116.907,263.557,116.907z"/>
<g>
	<path style="fill:#D32144;" d="M392.211,262.773c1.095,2.434,1.66,5.068,1.652,7.737c-0.035,5.346-2.156,10.457-5.911,14.256
		c-3.781,3.842-8.954,5.998-14.343,5.998H328.84c-4.903,0-9.632-1.799-13.3-5.042l-3.738-3.216
		c-6.189-5.494-8.423-14.195-5.65-21.993l36.51-101.706c1.999-5.598,8.163-8.51,13.761-6.511c3.425,1.226,5.998,4.103,6.841,7.641
		l13.909,58.503C380.823,233.643,385.856,248.482,392.211,262.773z"/>
	<path style="fill:#D32144;" d="M476.879,398.468v10.605c-0.017,18.185-7.719,35.528-21.211,47.724l-0.956,0.869
		c-11.118,10.084-25.592,15.656-40.596,15.647h-53.2c-13.161-0.009-25.974-4.286-36.51-12.17l-15.386-11.562
		c-12.196-9.041-21.028-21.889-25.122-36.51c-3.894-13.874-5.963-28.191-6.172-42.595c0.096-17.203,9.971-32.859,25.47-40.335
		l0.348-0.174c5.885-2.938,12.37-4.451,18.95-4.433h55.026c14.534-0.009,28.982,2.191,42.856,6.52l8.606,2.695
		c10.457,3.303,19.854,9.336,27.209,17.473l4.955,5.477C471.238,368.878,476.844,383.395,476.879,398.468z"/>
</g>
<path style="fill:#FF5750;" d="M511.998,398.468v10.692c0.009,27.991-11.831,54.678-32.598,73.455l-0.956,0.782
	c-17.542,15.908-40.387,24.705-64.066,24.688h-53.026c-20.689,0.017-40.83-6.702-57.373-19.124l-15.386-11.561
	c-18.577-13.891-31.981-33.598-38.075-55.982l-0.087-0.348c-10.77-39.552-9.136-81.461,4.694-120.048l66.066-184.115h67.978
	l22.254,93.535c8.423,35.458,25.644,68.221,50.071,95.274l25.905,28.686C503.21,351.987,511.972,374.806,511.998,398.468z
	 M476.879,409.073v-10.605c-0.035-15.065-5.642-29.59-15.734-40.769l-4.955-5.477c-7.354-8.137-16.751-14.169-27.209-17.473
	l-8.606-2.695c-13.874-4.329-28.321-6.528-42.856-6.52h-55.026c-6.581-0.017-13.065,1.495-18.95,4.433l-0.348,0.174
	c-15.499,7.476-25.374,23.132-25.47,40.335c0.209,14.404,2.278,28.721,6.172,42.595c4.094,14.621,12.926,27.469,25.122,36.51
	l15.386,11.562c10.536,7.884,23.349,12.161,36.51,12.17h53.2c15.004,0.009,29.477-5.563,40.596-15.647l0.956-0.869
	C469.16,444.592,476.862,427.259,476.879,409.073z M393.862,270.509c0.009-2.669-0.556-5.303-1.652-7.737
	c-6.354-14.291-11.388-29.13-15.039-44.334l-13.909-58.503c-1.373-5.781-7.18-9.354-12.961-7.971
	c-3.538,0.843-6.415,3.416-7.641,6.841l-36.51,101.706c-2.773,7.797-0.539,16.499,5.65,21.993l3.738,3.216
	c3.668,3.242,8.397,5.042,13.3,5.042h44.768c5.39,0,10.562-2.156,14.343-5.998C391.707,280.967,393.828,275.847,393.862,270.509z"/>
<path style="fill:#FFA4A1;" d="M106.399,484.362c-20.054-15.117-34.528-36.44-41.169-60.659c-4.094-14.674-6.52-29.764-7.25-44.977
	l17.386-0.869c0.652,13.822,2.851,27.522,6.554,40.856c5.572,20.637,17.846,38.84,34.902,51.731l15.465,11.562
	c15.056,11.266,33.354,17.368,52.157,17.386v8.693h58.946c-20.689,0.017-40.83-6.702-57.373-19.124l-15.386-11.561
	c-18.577-13.891-31.981-33.598-38.075-55.982l-0.087-0.348c-10.77-39.552-9.136-81.461,4.694-120.048l66.066-184.115H77.791
	L11.725,301.021C-2.105,339.609-3.74,381.517,7.031,421.07l0.087,0.348c6.094,22.384,19.498,42.091,38.075,55.982l15.386,11.561
	c16.542,12.422,36.684,19.142,57.373,19.124h24.914c-7.458-3.216-14.508-7.302-21.011-12.17L106.399,484.362z"/>
<g>
	<path style="fill:#D32144;" d="M184.452,508.085L184.452,508.085v-8.693c-18.803-0.017-37.101-6.12-52.157-17.386l-15.473-11.562
		c-17.055-12.883-29.338-31.077-34.919-51.714c-3.703-13.335-5.902-27.035-6.554-40.856l-17.386,0.869
		c0.73,15.212,3.156,30.303,7.25,44.977c6.641,24.218,21.115,45.542,41.169,60.659l15.473,11.535
		c6.502,4.868,13.552,8.954,21.011,12.17L184.452,508.085L184.452,508.085z"/>
	
		<rect x="47.794" y="249.11" transform="matrix(-0.3369 0.9415 -0.9415 -0.3369 367.9755 256.4551)" style="fill:#D32144;" width="91.776" height="17.385"/>
	<polygon style="fill:#D32144;" points="127.166,190.205 110.823,184.259 119.594,159.954 135.963,165.83 	"/>
	<path style="fill:#D32144;" d="M226.29,484.362c-9.145-6.807-17.186-14.969-23.853-24.218l14.1-10.171
		c5.624,7.806,12.413,14.708,20.133,20.454L226.29,484.362z"/>
	<path style="fill:#D32144;" d="M184.956,423.486c-11.327-41.3-9.623-85.094,4.868-125.394l16.369,5.859
		c-13.283,36.91-14.847,77.01-4.486,114.841l-8.302,2.608L184.956,423.486z"/>
</g>
<g>
</g>
<g>
</g>
<g>
</g>
<g>
</g>
<g>
</g>
<g>
</g>
<g>
</g>
<g>
</g>
<g>
</g>
<g>
</g>
<g>
</g>
<g>
</g>
<g>
</g>
<g>
</g>
<g>
</g>
</svg>
