<svg height="511pt" viewBox="0 -2 511.9999 511" width="511pt" xmlns="http://www.w3.org/2000/svg"><path d="m174.6875 74.886719-23.804688 92.867187 54.980469 13.507813 23.816407-92.902344c.898437-3.648437 4.242187-6.210937 7.992187-6 16.636719.917969 32.050781-10.519531 35.332031-27.699219 3.394532-17.796875-8.222656-35.507812-25.882812-39.554687-9.488282-2.171875-18.984375-.144531-26.515625 4.882812-2.386719 1.59375-5.625.933594-6.988281-1.59375-4.988282-9.226562-14.1875-16.128906-25.746094-17.621093-16.539063-2.136719-32.472656 8.445312-37.003906 24.496093-4.710938 16.683594 3.410156 33.535157 19.46875 40.5625 3.464843 1.515625 5.253906 5.382813 4.351562 9.054688zm0 0" fill="#fef1da"/><path d="m215.441406 143.914062-9.582031 37.351563-54.972656-13.511719 9.765625-38.101562c3.742187.195312 7.496094.753906 11.21875 1.667968 9.644531 2.363282 19.820312 4.859376 29.476562 7.234376 4.964844 1.226562 9.695313 3.035156 14.09375 5.359374zm0 0" fill="#fde6bf"/><path d="m408.441406 156.214844-65.878906 69.648437 41.515625 38.492188 65.90625-69.675781c2.554687-2.753907 6.722656-3.371094 9.902344-1.371094 14.097656 8.878906 33.128906 6.359375 44.332031-7.070313 11.605469-13.914062 10.042969-35.035156-3.4375-47.148437-7.242188-6.503906-16.527344-9.335938-25.550781-8.597656-2.863281.234374-5.375-1.914063-5.339844-4.78125.117187-10.492188-4.578125-20.988282-13.960937-27.902344-13.425782-9.894532-32.492188-8.375-44.242188 3.460937-12.214844 12.304688-13.289062 30.976563-2.660156 44.914063 2.292968 3.007812 1.984375 7.257812-.585938 10.03125zm0 0" fill="#fef1da"/><path d="m409.835938 237.132812-25.753907 27.222657-41.527343-38.492188 26.300781-27.808593c3.1875 2.003906 6.21875 4.316406 9.046875 6.9375 7.257812 6.734374 14.925781 13.839843 22.195312 20.585937 3.765625 3.484375 7.023438 7.371094 9.738282 11.554687zm0 0" fill="#fde6bf"/><path d="m151.832031 470.175781c55.113281 51.648438 141.652344 48.554688 192.941407-6.761719 39.75-42.871093 32.554687-107.160156 53.074218-159.796874 8.339844-21.402344 2.246094-45.753907-14.597656-61.371094-6.773438-6.28125-13.921875-12.90625-20.6875-19.175782-16.734375-15.515624-41.335938-19.683593-61.867188-9.726562-54.078124 26.230469-120.660156 18.835938-162.601562 73.230469-42.867188 55.585937-37.484375 135.601562 13.738281 183.601562zm0 0" fill="#ffc265"/><path d="m397.847656 303.621094c-20.519531 52.628906-13.324218 116.925781-53.070312 159.789062-30.699219 33.117188-74.035156 47.519532-115.703125 42.65625 31.078125-3.628906 61.058593-17.921875 83.996093-42.65625 39.746094-42.863281 32.558594-107.160156 53.070313-159.789062 8.347656-21.40625 2.253906-45.761719-14.597656-61.378906-6.765625-6.28125-13.921875-12.902344-20.6875-19.171876-6.496094-6.027343-14.1875-10.34375-22.371094-12.78125 18.710937-5.707031 39.417969-.8125 54.078125 12.78125 6.765625 6.269532 13.910156 12.890626 20.6875 19.171876 16.839844 15.617187 22.9375 39.972656 14.597656 61.378906zm0 0" fill="#ffb541"/><path d="m102.667969 473.929688c73.253906 18.414062 147.417969-26.285157 165.421875-99.542969 13.953125-56.773438-23.535156-109.496094-31.136719-165.472657-3.09375-22.761718-20.238281-41.097656-42.546875-46.582031-8.96875-2.203125-18.429688-4.527343-27.394531-6.730469-22.15625-5.441406-45.695313 2.851563-58.8125 21.519532-34.554688 49.175781-96.359375 75.019531-106.640625 142.933594-10.503906 69.40625 33.03125 136.757812 101.109375 153.875zm0 0" fill="#ffc265"/><path d="m268.089844 374.386719c-14.578125 59.332031-65.992188 99.929687-123.9375 103.4375 47.457031-10.375 87.316406-46.75 99.695312-97.117188 13.480469-54.816406-22.71875-105.738281-30.070312-159.796875-2.980469-21.980468-19.535156-39.6875-41.085938-44.980468-8.65625-2.128907-17.796875-4.378907-26.453125-6.5-11.511719-2.824219-23.410156-1.816407-33.914062 2.53125 13.570312-15 34.6875-21.261719 54.695312-16.359376 8.953125 2.203126 18.421875 4.527344 27.386719 6.734376 22.3125 5.480468 39.460938 23.8125 42.542969 46.574218 7.609375 55.980469 45.09375 108.703125 31.140625 165.476563zm0 0" fill="#ffb541"/></svg>