<svg height="512pt" viewBox="-140 0 511 512" width="512pt" xmlns="http://www.w3.org/2000/svg"><path d="m222.089844 143.828125s19.957031-40.257813-2.75-62.96875c-2.472656-2.46875-5.515625-4.476563-8.933594-6.253906-13.585938-7.070313-27.136719-14.203125-39.976562-22.558594l-.785157-.511719c-7.535156-4.902344-13.644531-11.921875-16.652343-20.394531-.023438-.054687-.042969-.113281-.0625-.171875-5.5625-15.808594-16.171876-30.96875-36.472657-30.96875-28.214843 0-30.28125 20.988281-58.152343 20.988281-33.03125 0-40.601563 16.859375-41.289063 28.558594-.882813 15.023437 10.136719 26.695313-5.503906 44.042969-18.925781 20.988281 2.0625 47.484375 2.0625 47.484375l22.710937 29.589843zm0 0" fill="#ccf49f"/><path d="m58.683594 20.988281c-.113282 0-.261719 0-.375 0-33.035156 0-40.605469 16.859375-41.292969 28.5625-.882813 15.023438 10.136719 26.695313-5.503906 44.042969-18.925781 20.988281 2.0625 47.480469 2.0625 47.480469l22.710937 29.59375 95.007813-13.722657c-54.949219-33.203124-70.4375-98.378906-72.609375-135.957031zm0 0" fill="#b3e59f"/><path d="m106.476562 120.378906c-3.523437 0-6.667968-2.234375-7.816406-5.582031l-21.332031-62.3125c-1.472656-4.316406.824219-9.015625 5.140625-10.492187 4.3125-1.460938 9.007812.820312 10.492188 5.136718l12.636718 36.917969 12.351563-45.195313c1.210937-4.402343 5.800781-6.949218 10.148437-5.789062 4.402344 1.203125 6.992188 5.75 5.789063 10.144531l-19.445313 71.089844c-.960937 3.5-4.082031 5.960937-7.710937 6.074219-.085938.007812-.171875.007812-.253907.007812zm0 0" fill="#b3e59f"/><path d="m54.550781 69.816406c-2.109375-5.625-9.324219-7.1875-13.570312-2.941406l-7.289063 7.289062c-5.027344 5.027344-6.273437 12.707032-3.09375 19.0625l23.0625 45.613282 24.257813-7.742188zm0 0" fill="#d19a6e"/><path d="m68.300781 134.164062-30.140625-64.46875-4.46875 4.464844c-5.027344 5.027344-6.273437 12.707032-3.09375 19.066406l23.0625 45.613282zm0 0" fill="#c38c66"/><path d="m172.371094 113.03125 30.886718-64.355469c2.042969-4.078125.386719-9.039062-3.691406-11.078125l-18.574218-9.289062c-3.957032-1.976563-8.765626-.488282-10.914063 3.378906l-44.15625 80.828125 16.515625 22.195313zm0 0" fill="#d19a6e"/><path d="m184.71875 30.175781-3.726562-1.867187c-3.957032-1.976563-8.765626-.488282-10.914063 3.378906l-44.160156 80.828125 16.515625 22.195313 5.410156-3.917969zm0 0" fill="#c38c66"/><path d="m140.886719 115.613281-21.503907-26.882812c-6.148437-7.683594-17.617187-8.320313-24.578124-1.359375l-4.46875 4.46875c-4.644532 4.648437-7.257813 10.949218-7.257813 17.519531v39.285156l-24.773437 57.808594 82.582031 24.773437 16.515625-49.546874zm0 0" fill="#ffc269"/><path d="m129.136719 197.574219c-8.492188-5.652344-37.226563-63.601563-17.238281-114.144531-5.75-1.980469-12.433594-.71875-17.089844 3.941406l-4.472656 4.46875c-4.644532 4.644531-7.253907 10.949218-7.253907 17.519531v39.285156l-24.773437 57.804688 82.578125 24.777343 9.816406-29.453124zm0 0" fill="#ffa95f"/><path d="m99.597656 152.773438c0 15.964843-12.941406 28.902343-28.902344 28.902343-15.964843 0-28.90625-12.9375-28.90625-28.902343 0-15.960938 12.941407-28.902344 28.90625-28.902344 15.960938 0 28.902344 12.941406 28.902344 28.902344zm0 0" fill="#ff8086"/><path d="m79.363281 173.007812c-15.960937 0-28.902343-12.941406-28.902343-28.90625 0-5.757812 1.730468-11.09375 4.632812-15.597656-7.984375 5.140625-13.304688 14.066406-13.304688 24.269532 0 15.964843 12.941407 28.902343 28.90625 28.902343 10.203126 0 19.125-5.316406 24.269532-13.300781-4.507813 2.902344-9.84375 4.632812-15.601563 4.632812zm0 0" fill="#e5646e"/><path d="m206.949219 148.644531c0 22.804688-18.484375 41.289063-41.289063 41.289063-22.804687 0-41.289062-18.484375-41.289062-41.289063 0-22.804687 18.484375-41.289062 41.289062-41.289062 22.804688 0 41.289063 18.484375 41.289063 41.289062zm0 0" fill="#ff8086"/><path d="m178.046875 177.546875c-22.804687 0-41.289063-18.484375-41.289063-41.289063 0-8.226562 2.472657-15.847656 6.617188-22.285156-11.40625 7.347656-19.003906 20.09375-19.003906 34.671875 0 22.804688 18.484375 41.289063 41.289062 41.289063 14.578125 0 27.324219-7.59375 34.671875-19.003906-6.433593 4.148437-14.058593 6.617187-22.285156 6.617187zm0 0" fill="#e5646e"/><path d="m231.726562 145.390625v350.09375c0 9.121094-7.394531 16.515625-16.515624 16.515625h-198.195313c-9.121094 0-16.515625-7.394531-16.515625-16.515625v-130.699219c0-12.402344 3.546875-24.550781 10.046875-35.113281 69.023437-112.222656 173.949219-173.394531 209.171875-191.644531 5.488281-2.84375 12.007812 1.183594 12.007812 7.363281zm0 0" fill="#ffe09f"/><path d="m215.210938 512c9.121093 0 16.515624-7.394531 16.515624-16.515625v-180.644531c-30.800781-48.378906-67.535156-87.199219-102.589843-117.265625-39.613281 31.691406-83.683594 75.34375-118.589844 132.09375-6.5 10.566406-10.046875 22.714843-10.046875 35.117187v130.699219c0 9.121094 7.394531 16.515625 16.515625 16.515625zm0 0" fill="#f6d190"/><path d="m.5 145.390625v350.09375c0 9.121094 7.394531 16.515625 16.515625 16.515625h198.195313c9.121093 0 16.515624-7.394531 16.515624-16.515625v-130.699219c0-12.402344-3.546874-24.550781-10.046874-35.113281-69.027344-112.222656-173.949219-173.394531-209.171876-191.644531-5.488281-2.84375-12.007812 1.183594-12.007812 7.363281zm0 0" fill="#ffe09f"/><path d="m107.855469 490.515625c-45.609375 0-82.582031-36.972656-82.582031-82.582031v-262.984375c-4.832032-2.707031-9.234376-5.089844-12.765626-6.921875-5.488281-2.839844-12.007812 1.183594-12.007812 7.363281v350.09375c0 9.121094 7.394531 16.515625 16.515625 16.515625h198.195313c9.121093 0 16.515624-7.394531 16.515624-16.515625v-4.96875zm0 0" fill="#f6d190"/><path d="m.5 340.550781c32.09375 7.382813 137.578125 35.347657 231.226562 101.429688v-20.074219c-97.175781-65.488281-203.785156-92.191406-231.226562-98.285156zm0 0" fill="#f6d190"/><path d="m25.273438 329.777344c-10.839844-2.925782-19.378907-4.957032-24.773438-6.152344v16.925781c5.925781 1.363281 14.382812 3.441407 24.773438 6.316407zm0 0" fill="#ecbd83"/></svg>